# xmcd
#
# Track frame offsets: 
#        183
#        37340
#        61128
#        84293
#        110770
#        140600
#
# Disc length: 2174 seconds
#
# Revision: 4
# Processed by: cddbd v1.5.2PL0 Copyright (c) Steve Scherf et al.
# Submitted via: ExactAudioCopyFreeDBPlugin 1.0
#
DISCID=51087c06
DTITLE=Miles Davis Quintet - Relaxin' with the Miles Davis Quintet
DYEAR=1956
DGENRE=Jazz
TTITLE0=If I were a Bell
TTITLE1=Your my Everything
TTITLE2=If I could write a Book
TTITLE3=Oleo
TTITLE4=It could happen to you
TTITLE5=Woody'n You
EXTD=YEAR: 1956
EXTT0=
EXTT1=
EXTT2=
EXTT3=
EXTT4=
EXTT5=
PLAYORDER=
